HIERARCHY
ROOT Hips
{
	OFFSET -3.958830 18.904000 13.208200
	CHANNELS 6 Xposition Yposition Zposition Zrotation Yrotation Xrotation 
	JOINT LHipJoint
	{
		OFFSET 0.000000 0.000000 0.000000
		CHANNELS 3 Zrotation Yrotation Xrotation
		JOINT LeftUpLeg
		{
			OFFSET 1.800000 -1.400000 0.085000
			CHANNELS 3 Zrotation Yrotation Xrotation
			JOINT LeftLeg
			{
				OFFSET 2.215000 -6.000000 0.000000
				CHANNELS 3 Zrotation Yrotation Xrotation
				JOINT LeftFoot
				{
					OFFSET 2.500000 -6.900000 0.000000
					CHANNELS 3 Zrotation Yrotation Xrotation
					JOINT LeftToeBase
					{
						OFFSET 0.200000 -0.500000 1.950000
						CHANNELS 3 Zrotation Yrotation Xrotation
						End Site
						{
							OFFSET 0.000000 0.000000 0.000000
						}
					}
				}
			}
		}
	}
	JOINT RHipJoint
	{
		OFFSET 0.000000 0.000000 0.000000
		CHANNELS 3 Zrotation Yrotation Xrotation
		JOINT RightUpLeg
		{
			OFFSET -1.800000 -1.400000 0.085000
			CHANNELS 3 Zrotation Yrotation Xrotation
			JOINT RightLeg
			{
				OFFSET -2.215000 -6.000000 0.000000
				CHANNELS 3 Zrotation Yrotation Xrotation
				JOINT RightFoot
				{
					OFFSET -2.500000 -6.900000 0.000000
					CHANNELS 3 Zrotation Yrotation Xrotation
					JOINT RightToeBase
					{
						OFFSET -0.200000 -0.500000 1.950000
						CHANNELS 3 Zrotation Yrotation Xrotation
						End Site
						{
							OFFSET 0.000000 0.000000 0.000000
						}
					}
				}
			}
		}
	}
	JOINT LowerBack
	{
		OFFSET 0.000000 0.000000 0.000000
		CHANNELS 3 Zrotation Yrotation Xrotation
		JOINT Spine
		{
			OFFSET -0.087000 1.940000 -0.288900
			CHANNELS 3 Zrotation Yrotation Xrotation
			JOINT Spine1
			{
				OFFSET 0.000000 1.950000 0.060000
				CHANNELS 3 Zrotation Yrotation Xrotation
				JOINT Neck
				{
					OFFSET 0.000000 0.000000 0.000000
					CHANNELS 3 Zrotation Yrotation Xrotation
					JOINT Neck1
					{
						OFFSET 0.000000 1.600000 0.340000
						CHANNELS 3 Zrotation Yrotation Xrotation
						JOINT Head
						{
							OFFSET 0.000000 1.667000 -0.240000
							CHANNELS 3 Zrotation Yrotation Xrotation
							End Site
							{
								OFFSET 0.000000 0.000000 0.000000
							}
						}
					}
				}
				JOINT LeftShoulder
				{
					OFFSET 0.000000 0.000000 0.000000
					CHANNELS 3 Zrotation Yrotation Xrotation
					JOINT LeftArm
					{
						OFFSET 2.700000 1.550000 -0.730000
						CHANNELS 3 Zrotation Yrotation Xrotation
						JOINT LeftForeArm
						{
							OFFSET 5.450000 0.000000 0.000000
							CHANNELS 3 Zrotation Yrotation Xrotation
							JOINT LeftHand
							{
								OFFSET 3.450000 0.000000 0.000000
								CHANNELS 3 Zrotation Yrotation Xrotation
								JOINT LeftHandIndex1
								{
									OFFSET 0.750000 0.000000 0.000000
									CHANNELS 3 Zrotation Yrotation Xrotation
									End Site
									{
										OFFSET 0.000000 0.000000 0.000000
									}
								}
							}
						}
					}
				}
				JOINT RightShoulder
				{
					OFFSET 0.000000 0.000000 0.000000
					CHANNELS 3 Zrotation Yrotation Xrotation
					JOINT RightArm
					{
						OFFSET -2.700000 1.550000 -0.730000
						CHANNELS 3 Zrotation Yrotation Xrotation
						JOINT RightForeArm
						{
							OFFSET -5.450000 0.000000 0.000000
							CHANNELS 3 Zrotation Yrotation Xrotation
							JOINT RightHand
							{
								OFFSET -3.450000 0.000000 0.000000
								CHANNELS 3 Zrotation Yrotation Xrotation
								JOINT RightHandIndex1
								{
									OFFSET -0.750000 0.000000 0.000000
									CHANNELS 3 Zrotation Yrotation Xrotation
									End Site
									{
										OFFSET 0.000000 0.000000 0.000000
									}
								}
							}
						}
					}
				}
			}
		}
	}
}
MOTION
Frames: 14
Frame Time: 0.016667
-0.156390 16.414690 -6.627660 -5.039436 -4.312560 2.910540 -15.371531 12.664310 2.262689 -3.867493 -0.167102 6.828636 2.232928 7.334385 40.275298 -0.030751 8.625210 1.976173 -0.003990 -0.345650 -0.294270 18.589305 -7.612645 5.950172 -8.083536 13.917062 -58.665961 19.200099 -19.694299 56.142662 -1.894903 -10.498117 0.916735 -0.117120 0.967590 0.555870 -3.778228 -3.981176 -8.629158 15.244695 -9.247411 24.844675 -2.776429 -7.701543 14.022382 1.665178 -4.928188 -10.631259 -11.406490 7.013790 33.095556 -6.506510 5.500680 -31.107010 -9.802477 -7.511575 2.931723 9.994748 5.064077 0.972528 161.502784 -29.099820 -126.437011 -4.061356 2.832854 1.123920 0.309590 0.078570 0.455550 7.042313 7.717901 7.992880 3.070331 -15.884580 -4.913138 -166.065998 40.753459 -161.818953 1.641427 -1.629147 -0.634820 0.739720 0.448830 -0.026190 
-0.169540 16.395310 -6.588960 -5.168635 -5.506726 2.590104 -15.402935 12.747703 2.324593 -3.896778 0.535526 8.203287 1.916274 7.522218 38.729620 0.083578 8.460419 2.044563 -0.097630 -0.453700 -0.366420 18.545041 -7.531696 5.985271 -8.857926 14.070001 -58.022152 21.439505 -20.663506 55.461554 -1.959676 -10.601485 0.918253 -0.247490 0.932460 0.552600 -3.666639 -4.219663 -8.734535 14.689024 -8.625325 24.745317 -1.799354 -7.251602 13.998109 2.008180 -5.429373 -12.150779 -13.534709 7.985141 37.106691 -6.050700 5.431810 -31.802730 -9.477693 -8.184868 4.714413 6.978302 6.763040 2.426247 165.693645 -32.141975 -142.910974 -4.062909 2.849602 1.150900 0.244400 0.110800 0.432890 6.109062 9.226473 8.661192 2.933374 -15.790991 -5.051489 -168.220923 40.687027 -167.443864 1.706877 -1.549133 -0.594090 0.695270 0.479340 -0.001520 
-0.178650 16.472590 -6.566860 -5.209163 -6.595094 1.255537 -15.449692 12.957701 2.457629 -3.754923 1.210751 9.824545 1.878291 7.618853 37.281042 0.168517 8.399167 2.086010 -0.219370 -0.594100 -0.456590 18.446057 -7.610635 5.823662 -8.385033 13.796501 -55.096338 22.131858 -20.303781 53.635050 -1.879828 -10.280215 1.036970 -0.369790 0.956320 0.575540 -3.441938 -4.505523 -8.786384 13.603264 -8.063889 27.238683 -1.123432 -6.664839 13.452908 2.529276 -5.244941 -13.591580 -13.473743 8.102197 38.071484 -7.227800 5.508680 -29.973000 -9.064600 -8.772503 6.341196 1.869609 7.683252 3.054694 173.042373 -38.115199 -171.704373 -4.100969 2.947262 1.146220 0.255100 0.108550 0.407660 4.724658 10.185999 9.620855 8.417227 -13.880021 -5.898848 -172.863826 42.248376 177.474123 1.704763 -1.472997 -0.574220 0.666390 0.545520 0.018400 
-0.164110 16.634690 -6.516620 -5.513865 -8.621674 0.067512 -15.452923 13.179074 2.653417 -3.852927 2.176362 11.598588 1.979537 7.493864 34.556077 0.225175 8.133310 2.181465 -0.302950 -0.699280 -0.480820 18.368351 -7.853593 5.533982 -6.222614 13.823776 -50.530363 20.534713 -18.242267 51.042696 -1.674120 -9.386174 1.310365 -0.478340 0.937180 0.582490 -3.302974 -4.595929 -8.780602 13.202696 -7.505464 29.361940 -1.378094 -5.858461 12.483766 3.165770 -4.766359 -14.938243 -12.903570 8.505391 40.165221 -8.007160 6.158540 -27.308460 -10.362737 -10.498932 8.076696 -4.624250 8.904959 2.034091 -178.703246 -43.230958 162.275999 -4.080797 2.994270 1.146280 0.240900 0.127810 0.367520 4.753052 12.094951 10.563806 14.898930 -11.467085 -7.392932 179.851609 45.866507 157.504742 1.750498 -1.356247 -0.540480 0.630360 0.580400 0.021290 
-0.140230 16.849860 -6.456270 -6.265333 -9.094454 -0.395470 -15.357894 13.369875 2.763613 -2.894967 2.599798 12.817848 2.076661 7.162258 31.097801 0.132597 7.786650 2.292384 -0.335700 -0.742890 -0.489640 18.376507 -8.281054 5.142719 -3.775998 12.946423 -45.700458 18.259982 -15.809426 47.073668 -1.392741 -8.205479 1.660880 -0.499640 0.938020 0.568140 -3.430293 -4.377614 -8.602859 15.390538 -8.133699 29.941123 -3.048491 -5.817982 11.475685 3.687310 -5.388120 -15.534018 -14.279188 8.879125 40.300683 -7.729600 5.450460 -24.680730 -11.386067 -11.652875 8.795431 -13.111729 8.873634 -1.136737 -165.727543 -52.510673 135.208270 -4.016254 2.947771 1.161410 0.238600 0.130410 0.343260 4.726867 13.823460 11.142457 23.165864 -8.667692 -9.445195 168.061476 50.869616 133.109634 1.769108 -1.202852 -0.551370 0.652430 0.612870 0.013860 
-0.134890 17.092370 -6.411230 -6.431170 -8.838209 0.188665 -15.337171 13.697973 2.855999 -2.023675 2.523266 12.263951 2.168377 6.796395 28.629900 0.052456 7.427704 2.389684 -0.304620 -0.714150 -0.457350 18.308874 -8.614882 4.767233 -1.511164 11.596942 -41.736518 15.466050 -12.919064 41.718612 -1.064532 -6.723717 2.110291 -0.489730 0.904090 0.572290 -3.335150 -4.540307 -8.473702 15.616144 -8.055748 29.584766 -2.851174 -5.458618 9.406408 3.872749 -5.835343 -15.579887 -15.425906 9.233892 40.630560 -7.042020 4.997070 -22.295340 -13.694612 -12.844942 8.734479 -20.727465 7.385343 -4.240641 -143.489429 -60.890993 105.645501 -3.973713 2.867946 1.157210 0.224610 0.150660 0.335780 6.690781 15.664901 11.353673 29.153819 -6.993959 -11.594412 150.916990 55.967515 107.174665 1.886575 -1.032936 -0.522220 0.631390 0.598300 0.010560 
-0.125970 17.352360 -6.381770 -6.121261 -8.873918 0.676450 -15.348137 14.060768 2.968967 -1.790110 2.379184 10.865092 2.429408 6.532946 28.006635 0.016832 7.195624 2.444202 -0.234080 -0.647430 -0.393250 18.209424 -8.928897 4.394115 0.879703 10.215004 -37.615617 11.501367 -9.856759 36.420553 -0.769849 -5.217208 2.593447 -0.463540 0.846570 0.578580 -3.141913 -4.806414 -8.377608 14.788985 -7.428595 29.909848 -2.157794 -4.582523 6.957627 3.983029 -6.215608 -15.504794 -16.502940 9.385267 41.009510 -6.091770 4.503570 -20.863750 -16.735161 -13.738576 8.525371 -27.291878 5.834151 -6.313161 -112.314429 -65.870146 72.664541 -4.024832 2.773115 1.157420 0.192020 0.184630 0.343630 9.591483 17.450533 11.448347 33.997813 -5.509861 -13.315319 127.762555 60.308934 79.430249 2.157460 -0.834344 -0.481150 0.593120 0.544950 0.006030 
-0.118710 17.579100 -6.349880 -5.204295 -8.182496 1.619132 -15.353724 14.362209 3.043756 -2.477007 1.942373 8.020611 3.827996 5.966580 30.034230 -0.067690 7.153980 2.428481 -0.245020 -0.687710 -0.373530 18.119263 -9.244084 4.111428 2.632844 8.769546 -34.622764 7.093085 -7.324819 31.869256 -0.518087 -4.011350 2.997646 -0.466850 0.842620 0.570260 -2.977769 -4.952788 -8.322078 13.300356 -6.563257 29.322062 -1.577444 -3.593454 4.335434 3.986884 -5.808674 -15.541997 -15.949125 9.096785 41.993601 -5.075690 4.165720 -18.845020 -19.653655 -14.853061 8.284208 -32.981286 4.427609 -7.761549 -75.437920 -64.324175 40.130340 -3.885031 2.943191 1.179400 0.194880 0.168920 0.313730 12.546338 18.780521 11.821867 39.526191 -4.182373 -13.351996 99.267396 64.350449 53.077324 2.403059 -0.733248 -0.507260 0.588480 0.567390 -0.026840 
-0.112480 17.785790 -6.321970 -3.797406 -7.895780 2.473994 -15.396365 14.577863 3.147854 -4.277000 1.281758 4.479203 6.088178 5.098801 34.299614 -0.048623 7.281386 2.344448 -0.184070 -0.609170 -0.341480 18.016197 -9.457344 3.899674 3.563406 7.589675 -32.496884 3.206547 -5.575515 29.186492 -0.417593 -3.329256 3.233445 -0.425710 0.804290 0.576790 -2.746664 -5.133526 -8.331035 10.677480 -5.361211 28.805474 -0.256342 -2.651958 1.586248 3.812102 -5.799986 -15.229508 -16.294324 8.945368 43.111072 -4.637290 3.676740 -18.388760 -23.286561 -15.776713 7.660580 -37.548117 3.095416 -9.381766 -47.811701 -55.513782 18.046427 -3.722048 2.912771 1.177480 0.177140 0.200380 0.332580 16.727016 20.219929 11.818319 43.088148 -3.224468 -14.127813 67.084968 62.973798 30.657769 2.038521 -1.104836 -0.477560 0.571620 0.525970 -0.022230 
-0.098650 17.947080 -6.271270 -1.890522 -6.775882 3.337047 -15.426075 14.624148 3.349858 -6.669601 -0.147908 0.511315 8.669851 4.055006 41.507026 0.065077 7.941790 2.072669 -0.122040 -0.541930 -0.284350 17.931272 -9.720712 3.610969 2.242476 6.129116 -30.616244 2.156451 -5.137434 27.439905 -0.390349 -3.086296 3.305502 -0.383400 0.766220 0.583880 -2.591796 -5.052907 -8.378462 7.959875 -4.318940 27.250118 0.638274 -2.183663 -0.409656 3.552421 -5.440740 -14.858535 -15.917913 8.576139 45.018892 -4.261030 3.197680 -18.317820 -27.125735 -16.843465 7.275597 -41.103045 1.680791 -9.373988 -28.293768 -44.090521 5.684224 -3.670980 2.780731 1.188570 0.163110 0.228280 0.330060 21.239496 21.368240 11.412984 46.016387 -2.298359 -15.910386 41.603458 55.706946 14.612220 1.813198 -1.092285 -0.458670 0.568220 0.500380 -0.036860 
-0.097150 18.051160 -6.212570 -0.829301 -5.316765 4.688411 -15.427467 14.439834 3.534110 -7.515570 -2.559281 -4.657446 9.926972 3.833428 51.736601 0.303784 9.335662 1.582909 -0.093800 -0.492510 -0.260470 17.913740 -9.940326 3.371885 1.182718 5.096973 -28.992111 1.817255 -5.001054 25.771937 -0.362890 -2.951167 3.357949 -0.327960 0.784570 0.572670 -2.593860 -4.622125 -8.443739 6.544585 -3.578008 24.119513 1.136824 -1.913553 -0.205287 3.109679 -4.857700 -14.329656 -14.536035 7.762637 46.121045 -4.389170 2.878480 -17.590230 -29.660883 -18.059249 7.100198 -44.928233 -0.584557 -7.885028 -13.695701 -32.529392 -0.280780 -3.722307 2.584668 1.181320 0.192130 0.225980 0.336670 24.627764 22.318409 10.743116 49.319044 0.162633 -16.188767 21.713749 46.545494 4.582698 1.711169 -0.931962 -0.480370 0.615090 0.494320 -0.044820 
-0.088530 18.126770 -6.154170 0.052506 -3.663146 5.894942 -15.415912 14.076359 3.835101 -8.103475 -5.250406 -9.589109 10.826555 3.864501 61.950355 0.617176 10.925778 1.064863 -0.085610 -0.456330 -0.284700 17.948413 -10.113904 3.078822 0.234699 3.907324 -27.044416 1.467298 -4.757994 22.770783 -0.291362 -2.716753 3.458868 -0.269960 0.840390 0.545000 -2.704385 -4.057326 -8.499123 5.915438 -3.218386 20.751815 1.104363 -1.880860 1.078603 2.396067 -4.773212 -13.921129 -14.016731 7.411658 46.168280 -3.138900 2.220790 -15.759520 -32.124387 -19.531548 7.031608 -47.813943 -2.677688 -5.447448 -3.036863 -21.931101 -2.426249 -3.826662 2.458854 1.139310 0.238510 0.180330 0.348620 28.448477 23.612253 10.353469 50.585692 2.093847 -14.696760 8.580096 36.560228 0.015220 1.664267 -0.828734 -0.509520 0.666720 0.507380 -0.035630 
-0.090390 18.170590 -6.095070 0.652715 -3.205986 7.450544 -15.409881 13.554069 4.058605 -7.693181 -7.193678 -14.521254 10.520849 5.345255 70.878531 0.979528 12.473660 0.606572 -0.104980 -0.445740 -0.352560 18.016899 -10.217758 2.891149 -0.298472 3.257876 -25.635189 1.591935 -4.447204 18.900070 -0.207604 -2.502549 3.555981 -0.240570 0.934190 0.565490 -2.833117 -3.210520 -8.496006 5.074371 -2.077721 17.187961 0.944820 -1.022800 1.994023 1.684672 -4.198894 -12.520800 -11.622069 6.558430 44.686628 -2.386660 1.925960 -13.157880 -33.581656 -18.999493 6.264122 -50.595027 -4.262751 -3.504739 3.019447 -14.233186 -2.667549 -4.005446 2.446576 1.044010 0.327980 0.114540 0.374540 31.175483 23.024367 9.145607 51.620001 4.642759 -10.914556 0.845994 24.922437 -1.176495 1.723657 -0.815653 -0.506600 0.670150 0.528850 0.003670 
-0.098050 18.213180 -6.047420 1.182905 -3.008922 8.793939 -15.425533 13.052424 4.178589 -6.909461 -8.286740 -18.731853 10.550111 6.777068 76.990329 1.241345 13.589137 0.314204 -0.135230 -0.465900 -0.420890 18.068256 -10.299925 2.762983 -0.995736 2.775585 -24.002539 2.586489 -4.277456 14.674784 -0.134563 -2.410965 3.632227 -0.224740 1.033980 0.568340 -2.901948 -2.335799 -8.407065 3.706905 -0.619048 14.208298 1.230262 0.126152 2.772381 1.129349 -3.454082 -11.317972 -8.816498 5.861990 42.994497 -1.670240 1.821260 -10.365470 -33.262826 -18.078187 5.620125 -54.082720 -5.082997 -2.819322 5.480681 -10.539692 -2.552490 -4.142972 2.453918 0.961820 0.415190 0.033070 0.407680 31.961733 22.381234 8.086899 52.802472 6.772242 -7.562197 -1.128658 16.151914 -0.820042 1.800299 -0.848995 -0.527130 0.678110 0.544380 0.032060 
